<svg xmlns="http://www.w3.org/2000/svg" width="640" height="1280" viewBox="0 0 640 1280">
  <rect x="40" y="40" width="560" height="1200" rx="60" ry="60" fill="#f8f9fb" stroke="#0a0f29" stroke-width="4"/>
  <rect x="80" y="120" width="480" height="80" rx="20" ry="20" fill="#0a0f29"/>
  <text x="320" y="170" font-family="SF Pro Display, Helvetica" font-size="36" fill="#ffffff" text-anchor="middle">Live Studio</text>
  <text x="320" y="240" font-family="SF Pro Display, Helvetica" font-size="24" fill="#0a0f29" text-anchor="middle">Welcome back, Taylor</text>

  <text x="320" y="310" font-family="SF Pro Display, Helvetica" font-size="20" fill="#4a4f63" text-anchor="middle">Current overlay preset</text>
  <rect x="100" y="340" width="440" height="220" rx="24" ry="24" fill="#ffffff" stroke="#d8dbe6" stroke-width="3"/>
  <rect x="120" y="360" width="400" height="140" rx="18" ry="18" fill="#e4f1ff" stroke="#9bbef5" stroke-width="2"/>
  <text x="320" y="420" font-family="SF Pro Display, Helvetica" font-size="22" fill="#0a0f29" text-anchor="middle">Virtual Background + Real Person</text>
  <text x="320" y="460" font-family="SF Pro Display, Helvetica" font-size="16" fill="#4a4f63" text-anchor="middle">Backdrop: Neon Studio</text>
  <rect x="120" y="510" width="400" height="30" rx="8" ry="8" fill="#0a0f29"/>
  <text x="320" y="532" font-family="SF Pro Display, Helvetica" font-size="16" fill="#ffffff" text-anchor="middle">Change overlay</text>

  <text x="320" y="620" font-family="SF Pro Display, Helvetica" font-size="20" fill="#4a4f63" text-anchor="middle">Streaming destinations</text>
  <rect x="100" y="650" width="440" height="160" rx="24" ry="24" fill="#ffffff" stroke="#d8dbe6" stroke-width="3"/>
  <g font-family="SF Pro Display, Helvetica" font-size="18" fill="#0a0f29">
    <text x="160" y="710">TikTok</text>
    <text x="160" y="750">YouTube</text>
    <text x="160" y="790">Twitch</text>
  </g>
  <g fill="#4caf50">
    <circle cx="120" cy="700" r="16"/>
    <circle cx="120" cy="740" r="16"/>
    <circle cx="120" cy="780" r="16"/>
  </g>
  <g fill="#ffffff" font-size="16" font-family="SF Pro Display, Helvetica" text-anchor="middle">
    <text x="120" y="706">✓</text>
    <text x="120" y="746">✓</text>
    <text x="120" y="786">✓</text>
  </g>

  <rect x="140" y="880" width="360" height="120" rx="30" ry="30" fill="#0a0f29"/>
  <text x="320" y="948" font-family="SF Pro Display, Helvetica" font-size="32" fill="#ffffff" text-anchor="middle">Go Live</text>

  <text x="320" y="1040" font-family="SF Pro Display, Helvetica" font-size="18" fill="#4a4f63" text-anchor="middle">Preview your stream below</text>
  <rect x="160" y="1070" width="320" height="140" rx="18" ry="18" fill="#ffffff" stroke="#d8dbe6" stroke-width="3" stroke-dasharray="10 8"/>
  <text x="320" y="1150" font-family="SF Pro Display, Helvetica" font-size="16" fill="#9aa0b5" text-anchor="middle">Live preview thumbnail</text>
</svg>
