<svg xmlns="http://www.w3.org/2000/svg" width="640" height="1280" viewBox="0 0 640 1280">
  <rect x="40" y="40" width="560" height="1200" rx="60" ry="60" fill="#f5f7fb" stroke="#d8dbe6" stroke-width="4"/>
  <text x="320" y="140" font-family="SF Pro Display, Helvetica" font-size="30" fill="#0a0f29" text-anchor="middle">Connect Platform Account</text>
  <text x="320" y="180" font-family="SF Pro Display, Helvetica" font-size="18" fill="#4a4f63" text-anchor="middle">Choose a provider to continue with OAuth 2.0</text>

  <rect x="120" y="240" width="400" height="220" rx="32" ry="32" fill="#ffffff" stroke="#d8dbe6" stroke-width="2"/>
  <text x="320" y="286" font-family="SF Pro Display, Helvetica" font-size="20" fill="#0a0f29" text-anchor="middle">Select platform to authenticate</text>
  <text x="320" y="320" font-family="SF Pro Display, Helvetica" font-size="16" fill="#4a4f63" text-anchor="middle">Link your account so streams can publish on your behalf.</text>

  <rect x="140" y="360" width="360" height="68" rx="20" ry="20" fill="#1877f2"/>
  <text x="320" y="404" font-family="SF Pro Display, Helvetica" font-size="22" fill="#ffffff" text-anchor="middle">Continue with Meta</text>

  <rect x="140" y="440" width="360" height="68" rx="20" ry="20" fill="#ffffff" stroke="#d8dbe6" stroke-width="2"/>
  <text x="320" y="484" font-family="SF Pro Display, Helvetica" font-size="22" fill="#0a0f29" text-anchor="middle">Continue with Google</text>

  <rect x="140" y="520" width="360" height="68" rx="20" ry="20" fill="#000000"/>
  <text x="320" y="564" font-family="SF Pro Display, Helvetica" font-size="22" fill="#ffffff" text-anchor="middle">Continue with TikTok</text>

  <text x="320" y="620" font-family="SF Pro Display, Helvetica" font-size="16" fill="#4a4f63" text-anchor="middle">We never post without permission. You can revoke access at any time.</text>

  <rect x="160" y="680" width="320" height="60" rx="20" ry="20" fill="#ffffff" stroke="#0a0f29" stroke-width="2" stroke-dasharray="12 8"/>
  <text x="320" y="716" font-family="SF Pro Display, Helvetica" font-size="20" fill="#0a0f29" text-anchor="middle">Use different provider</text>

  <text x="320" y="780" font-family="SF Pro Display, Helvetica" font-size="16" fill="#4a4f63" text-anchor="middle">Having trouble?</text>
  <text x="320" y="812" font-family="SF Pro Display, Helvetica" font-size="18" fill="#1877f2" text-anchor="middle">Open help center</text>

  <rect x="220" y="900" width="200" height="60" rx="20" ry="20" fill="#0a0f29"/>
  <text x="320" y="936" font-family="SF Pro Display, Helvetica" font-size="22" fill="#ffffff" text-anchor="middle">Cancel</text>
</svg>
