<svg xmlns="http://www.w3.org/2000/svg" width="640" height="1280" viewBox="0 0 640 1280">
  <defs>
    <linearGradient id="bg" x1="0" y1="0" x2="1" y2="1">
      <stop offset="0%" stop-color="#f8fafc"/>
      <stop offset="100%" stop-color="#e2e8f0"/>
    </linearGradient>
    <filter id="cardShadow" x="-15%" y="-15%" width="130%" height="130%">
      <feOffset dy="18" in="SourceAlpha" result="offset"/>
      <feGaussianBlur in="offset" stdDeviation="28" result="blur"/>
      <feColorMatrix in="blur" type="matrix" values="0 0 0 0 0.17 0 0 0 0 0.21 0 0 0 0 0.30 0 0 0 0.12 0" result="shadow"/>
      <feBlend in="SourceGraphic" in2="shadow" mode="normal"/>
    </filter>
  </defs>

  <rect width="640" height="1280" fill="url(#bg)"/>

  <g transform="translate(80, 200)">
    <rect width="480" height="840" rx="44" fill="#ffffff" filter="url(#cardShadow)"/>

    <g transform="translate(80, 120)">
      <g transform="translate(152, 0)">
        <circle cx="48" cy="48" r="48" fill="#eef2ff"/>
        <path d="M64 28l-14 28-12-12" fill="none" stroke="#6366f1" stroke-width="6" stroke-linecap="round" stroke-linejoin="round"/>
      </g>

      <text x="0" y="188" font-family="SF Pro Display, Helvetica" font-size="34" font-weight="600" fill="#0f172a">Sign in to Live Studio</text>
      <text x="0" y="228" font-family="SF Pro Display, Helvetica" font-size="20" fill="#475569">Choose your account to continue.</text>

      <g transform="translate(0, 292)">
        <rect width="320" height="76" rx="24" fill="#1877f2"/>
        <text x="64" y="48" font-family="SF Pro Display, Helvetica" font-size="22" fill="#ffffff">Continue with Meta</text>
        <circle cx="40" cy="38" r="18" fill="#0f4cd3" opacity="0.9"/>
        <path d="M32 38h16" stroke="#ffffff" stroke-width="3" stroke-linecap="round"/>
      </g>

      <g transform="translate(0, 384)">
        <rect width="320" height="76" rx="24" fill="#ffffff" stroke="#e2e8f0" stroke-width="2"/>
        <text x="64" y="48" font-family="SF Pro Display, Helvetica" font-size="22" fill="#0f172a">Continue with Google</text>
        <circle cx="40" cy="38" r="18" fill="#f1f5f9"/>
        <path d="M40 24v28" stroke="#0f172a" stroke-width="3" stroke-linecap="round"/>
        <path d="M26 38h28" stroke="#0f172a" stroke-width="3" stroke-linecap="round"/>
      </g>

      <g transform="translate(0, 476)">
        <rect width="320" height="76" rx="24" fill="#0f172a"/>
        <text x="64" y="48" font-family="SF Pro Display, Helvetica" font-size="22" fill="#ffffff">Continue with TikTok</text>
        <circle cx="40" cy="38" r="18" fill="#ffffff" opacity="0.14"/>
        <path d="M34 30c8 0 8 10 16 10v12c-8 0-8-10-16-10V30z" fill="#ffffff" opacity="0.6"/>
      </g>

      <text x="0" y="612" font-family="SF Pro Display, Helvetica" font-size="16" fill="#64748b">By continuing you agree to Live Studio's Terms and Privacy Policy.</text>
      <text x="0" y="646" font-family="SF Pro Display, Helvetica" font-size="18" font-weight="600" fill="#6366f1">Need help signing in?</text>
    </g>
  </g>
</svg>
