<svg xmlns="http://www.w3.org/2000/svg" width="640" height="1280" viewBox="0 0 640 1280">
  <rect x="40" y="40" width="560" height="1200" rx="60" ry="60" fill="#0a0f29" fill-opacity="0.65"/>
  <rect x="100" y="320" width="440" height="640" rx="40" ry="40" fill="#ffffff" stroke="#0a0f29" stroke-width="4"/>
  <text x="320" y="380" font-family="SF Pro Display, Helvetica" font-size="26" fill="#0a0f29" text-anchor="middle">Select destinations</text>
  <text x="320" y="420" font-family="SF Pro Display, Helvetica" font-size="18" fill="#4a4f63" text-anchor="middle">Choose one or more streaming platforms</text>

  <rect x="140" y="460" width="360" height="110" rx="26" ry="26" fill="#f5f7fb" stroke="#d8dbe6" stroke-width="2"/>
  <text x="220" y="510" font-family="SF Pro Display, Helvetica" font-size="22" fill="#0a0f29">TikTok</text>
  <circle cx="460" cy="510" r="26" fill="#4caf50"/>
  <text x="460" y="518" font-family="SF Pro Display, Helvetica" font-size="22" fill="#ffffff" text-anchor="middle">✓</text>
  <text x="220" y="540" font-family="SF Pro Display, Helvetica" font-size="14" fill="#4a4f63">Overlay pipeline ready</text>
  <text x="420" y="540" font-family="SF Pro Display, Helvetica" font-size="15" fill="#1f3d7a">Details ›</text>

  <rect x="140" y="590" width="360" height="110" rx="26" ry="26" fill="#f5f7fb" stroke="#d8dbe6" stroke-width="2"/>
  <text x="220" y="640" font-family="SF Pro Display, Helvetica" font-size="22" fill="#0a0f29">YouTube</text>
  <circle cx="460" cy="640" r="26" fill="#4caf50"/>
  <text x="460" y="648" font-family="SF Pro Display, Helvetica" font-size="22" fill="#ffffff" text-anchor="middle">✓</text>
  <text x="220" y="670" font-family="SF Pro Display, Helvetica" font-size="14" fill="#4a4f63">4K output available</text>
  <text x="420" y="670" font-family="SF Pro Display, Helvetica" font-size="15" fill="#1f3d7a">Details ›</text>

  <rect x="140" y="720" width="360" height="120" rx="26" ry="26" fill="#fef5f5" stroke="#f6b5b5" stroke-width="2"/>
  <text x="220" y="775" font-family="SF Pro Display, Helvetica" font-size="22" fill="#0a0f29">Twitch</text>
  <circle cx="460" cy="775" r="26" fill="#ffffff" stroke="#d8dbe6" stroke-width="2"/>
  <text x="460" y="783" font-family="SF Pro Display, Helvetica" font-size="22" fill="#d8dbe6" text-anchor="middle">+</text>
  <text x="220" y="805" font-family="SF Pro Display, Helvetica" font-size="14" fill="#d36c6c">Reconnect required</text>
  <rect x="360" y="790" width="120" height="32" rx="16" ry="16" fill="#e25454"/>
  <text x="420" y="811" font-family="SF Pro Display, Helvetica" font-size="16" fill="#ffffff" text-anchor="middle">Reconnect</text>
  <text x="220" y="835" font-family="SF Pro Display, Helvetica" font-size="15" fill="#1f3d7a">Details ›</text>

  <rect x="180" y="870" width="280" height="60" rx="18" ry="18" fill="none" stroke="#1f3d7a" stroke-width="2" stroke-dasharray="10 6"/>
  <text x="320" y="906" font-family="SF Pro Display, Helvetica" font-size="20" fill="#1f3d7a" text-anchor="middle">＋ Add platform</text>

  <rect x="180" y="960" width="280" height="70" rx="24" ry="24" fill="#0a0f29"/>
  <text x="320" y="1005" font-family="SF Pro Display, Helvetica" font-size="26" fill="#ffffff" text-anchor="middle">Go Live</text>

  <text x="320" y="1060" font-family="SF Pro Display, Helvetica" font-size="16" fill="#9aa0b5" text-anchor="middle">Streaming starts once overlay is synced</text>
  <text x="320" y="1120" font-family="SF Pro Display, Helvetica" font-size="18" fill="#ffffff" text-anchor="middle">Cancel</text>
</svg>
