<svg xmlns="http://www.w3.org/2000/svg" width="640" height="1280" viewBox="0 0 640 1280">
  <rect x="40" y="40" width="560" height="1200" rx="60" ry="60" fill="#f8f9fb" stroke="#0a0f29" stroke-width="4"/>
  <rect x="80" y="120" width="480" height="80" rx="20" ry="20" fill="#0a0f29"/>
  <text x="320" y="170" font-family="SF Pro Display, Helvetica" font-size="32" fill="#ffffff" text-anchor="middle">Preview</text>

  <rect x="120" y="240" width="400" height="260" rx="28" ry="28" fill="#ffffff" stroke="#d8dbe6" stroke-width="3"/>
  <rect x="140" y="260" width="360" height="200" rx="24" ry="24" fill="#121927" stroke="#273047" stroke-width="2"/>
  <text x="320" y="330" font-family="SF Pro Display, Helvetica" font-size="24" fill="#ffffff" text-anchor="middle">Cloud overlay output</text>
  <text x="320" y="360" font-family="SF Pro Display, Helvetica" font-size="16" fill="#9aa0b5" text-anchor="middle">Virtual BG • Real Person</text>
  <rect x="160" y="380" width="320" height="40" rx="14" ry="14" fill="#0a0f29"/>
  <text x="320" y="405" font-family="SF Pro Display, Helvetica" font-size="16" fill="#ffffff" text-anchor="middle">Live: 00:12:48 | Viewers: 1.2K</text>

  <text x="120" y="540" font-family="SF Pro Display, Helvetica" font-size="20" fill="#4a4f63">Platform tiles</text>
  <rect x="120" y="560" width="400" height="180" rx="24" ry="24" fill="#ffffff" stroke="#d8dbe6" stroke-width="3"/>
  <g font-family="SF Pro Display, Helvetica" font-size="18" fill="#0a0f29">
    <text x="180" y="610">TikTok</text>
    <text x="180" y="650">YouTube</text>
    <text x="180" y="690">Twitch</text>
  </g>
  <g fill="#4caf50">
    <circle cx="150" cy="600" r="14"/>
    <circle cx="150" cy="640" r="14"/>
    <circle cx="150" cy="680" r="14"/>
  </g>
  <g fill="#ffffff" font-size="14" font-family="SF Pro Display, Helvetica" text-anchor="middle">
    <text x="150" y="606">✓</text>
    <text x="150" y="646">✓</text>
    <text x="150" y="686">✓</text>
  </g>
  <g font-family="SF Pro Display, Helvetica" font-size="14" fill="#4a4f63">
    <text x="260" y="610">Bitrate: 6 Mbps</text>
    <text x="260" y="650">Bitrate: 8 Mbps</text>
    <text x="260" y="690">Bitrate: 4 Mbps</text>
  </g>

  <text x="120" y="770" font-family="SF Pro Display, Helvetica" font-size="20" fill="#4a4f63">Controls</text>
  <rect x="120" y="790" width="400" height="140" rx="24" ry="24" fill="#ffffff" stroke="#d8dbe6" stroke-width="3"/>
  <text x="200" y="840" font-family="SF Pro Display, Helvetica" font-size="18" fill="#0a0f29">Switch overlay</text>
  <text x="200" y="880" font-family="SF Pro Display, Helvetica" font-size="18" fill="#0a0f29">Sync audio</text>
  <rect x="140" y="820" width="40" height="20" rx="10" ry="10" fill="#4caf50"/>
  <rect x="140" y="860" width="40" height="20" rx="10" ry="10" fill="#4caf50"/>
  <circle cx="170" cy="830" r="12" fill="#ffffff"/>
  <circle cx="170" cy="870" r="12" fill="#ffffff"/>

  <rect x="160" y="960" width="320" height="80" rx="26" ry="26" fill="#c62828"/>
  <text x="320" y="1008" font-family="SF Pro Display, Helvetica" font-size="26" fill="#ffffff" text-anchor="middle">End Stream</text>

  <rect x="100" y="1100" width="440" height="80" rx="30" ry="30" fill="#ffffff" stroke="#d8dbe6" stroke-width="2"/>
  <text x="320" y="1148" font-family="SF Pro Display, Helvetica" font-size="18" fill="#4a4f63" text-anchor="middle">Tap to expand detailed analytics</text>
</svg>
